<?xml version="1.0" encoding="UTF-8"?>
<svg id="_레이어_2" data-name="레이어 2" xmlns="http://www.w3.org/2000/svg" viewBox="0 0 362.51 306.29">
  <defs>
    <style>
      .cls-1 {
        fill: #fffdf1;
      }

      .cls-1, .cls-2, .cls-3, .cls-4 {
        stroke: #231815;
        stroke-miterlimit: 10;
      }

      .cls-1, .cls-2, .cls-4 {
        stroke-width: 12px;
      }

      .cls-2, .cls-5 {
        fill: #fff;
      }

      .cls-6 {
        fill: #040000;
      }

      .cls-6, .cls-7, .cls-5 {
        stroke-width: 0px;
      }

      .cls-3 {
        fill: none;
        stroke-width: 6px;
      }

      .cls-7 {
        fill: #f4b0c0;
      }

      .cls-4 {
        fill: #231815;
      }
    </style>
  </defs>
  <g id="_레이어_1-2" data-name="레이어 1">
    <path class="cls-2" d="M356.49,170.24c1.07,91.83-75.74,128.89-172.52,130.02-96.78,1.13-176.9-34.11-177.96-125.94C4.94,82.49,82.53,7.14,179.32,6.01c96.78-1.13,176.11,72.4,177.18,164.23Z"/>
    <path class="cls-1" d="M291.04,166.58c14.12,54.07-47.65,98.62-110.3,99.35-62.65.73-125.7-38.74-112.39-95.02,14.29-60.41,47.75-88.06,110.4-88.79s97.94,29.5,112.29,84.46Z"/>
    <ellipse class="cls-4" cx="119.64" cy="188.06" rx="2.02" ry="8.09" transform="translate(-2.18 1.4) rotate(-.67)"/>
    <ellipse class="cls-7" cx="262.61" cy="210.43" rx="15.66" ry="8.18" transform="translate(-2.43 3.07) rotate(-.67)"/>
    <ellipse class="cls-7" cx="97.01" cy="212.36" rx="15.66" ry="8.18" transform="translate(-2.46 1.14) rotate(-.67)"/>
    <path class="cls-3" d="M146.45,196.64c3.91,4.47,8.6,7.85,14.18,8.59,7.6,1.01,11.67-9.13,21.21-9,8.62.12,11.95,8.72,19.22,8.61,4.72-.07,8.22-1.14,16.16-9.02"/>
    <circle class="cls-5" cx="123.25" cy="189.82" r="2.57"/>
    <circle class="cls-5" cx="119.41" cy="195.21" r="1.8"/>
    <ellipse class="cls-4" cx="239.91" cy="185.48" rx="2.02" ry="8.09" transform="translate(-2.14 2.8) rotate(-.67)"/>
    <circle class="cls-5" cx="243.52" cy="187.24" r="2.57"/>
    <circle class="cls-5" cx="239.69" cy="192.62" r="1.8"/>
    <g>
      <polyline class="cls-6" points="323.09 180.31 312.63 180.31 312.63 192.27 299.84 192.27 299.84 205.48 216.13 205.48 216.13 192.27 206.64 192.27 206.64 179.68 194.62 179.68 194.62 165.84 169.63 165.84 169.63 180.94 157.42 180.94 157.42 191.01 144.63 191.01 144.63 205.48 60.92 205.48 60.92 191.64 48.13 191.64 48.13 180.94 37.66 180.94 37.66 165.84 25.46 165.84 25.46 140.66 322.62 140.66"/>
      <g>
        <rect class="cls-5" x="69.38" y="154.83" width="12.5" height="13.53"/>
        <rect class="cls-5" x="81.88" y="167.1" width="12.5" height="13.53"/>
        <rect class="cls-5" x="94.38" y="180.63" width="12.5" height="13.53"/>
        <rect class="cls-5" x="94.38" y="154.2" width="12.5" height="13.53"/>
        <rect class="cls-5" x="106.87" y="166.46" width="12.5" height="13.53"/>
        <rect class="cls-5" x="119.37" y="179.99" width="12.5" height="13.53"/>
        <rect class="cls-5" x="224.45" y="153.88" width="12.5" height="13.53"/>
        <rect class="cls-5" x="236.95" y="166.15" width="12.5" height="13.53"/>
        <rect class="cls-5" x="249.44" y="179.68" width="12.5" height="13.53"/>
        <rect class="cls-5" x="249.44" y="153.25" width="12.5" height="13.53"/>
        <rect class="cls-5" x="261.94" y="165.51" width="12.5" height="13.53"/>
        <rect class="cls-5" x="274.44" y="179.04" width="12.5" height="13.53"/>
      </g>
    </g>
  </g>
</svg>